<svg width="73" height="70" viewBox="0 0 73 70" fill="none" xmlns="http://www.w3.org/2000/svg">
<path d="M0 70L10.4809 66.3793L2.55929 62.7586L0 70Z" fill="#F7B600"/>
<path d="M30.3459 40.3104L15.5995 25.5862L13.1621 32.3448L30.3459 40.3104Z" fill="#FFDD7D"/>
<path d="M13.1621 32.3448L10.4809 39.9483L43.1424 55.0345L44.7267 54.5517L30.3459 40.3103L13.1621 32.3448Z" fill="#F7B600"/>
<path d="M7.92162 47.5517L32.2958 58.7759L43.1424 55.0345L10.4809 39.9483L7.92162 47.5517Z" fill="#FFDD7D"/>
<path d="M5.24045 55.1552L21.3274 62.6379L32.2958 58.7759L7.92161 47.5517L5.24045 55.1552Z" fill="#F7B600"/>
<path d="M5.24046 55.1552L2.5593 62.7586L10.4809 66.3793L21.3274 62.6379L5.24046 55.1552Z" fill="#FFDD7D"/>
<path d="M36.4395 34.0345C44.6048 42 48.8703 50.931 45.9454 53.8276C42.8986 56.7241 33.8802 52.6207 25.5929 44.5345C17.4276 36.569 13.1621 27.6379 16.087 24.7414C19.1338 21.8448 28.1522 26.069 36.4395 34.0345Z" fill="#493816"/>
<path d="M26.2023 13.8793C24.2523 11.1034 26.3241 9.89655 29.0053 10.3793C26.446 7.36207 28.0303 5.18965 32.0521 6.03448C33.2708 6.27586 31.5646 8.32758 30.4678 8.32758C33.7583 10.7414 31.9302 13.3966 28.396 12.7931C31.5646 17.0172 26.2023 15.931 23.7649 16.1724C23.1555 19.3103 26.8116 22.931 25.5929 22.931C22.9118 22.931 18.5244 12.9138 26.2023 13.8793Z" fill="#42ADE2"/>
<path d="M51.7952 19.6724C49.9672 20.5172 44.8486 12.5517 51.1859 12.431C47.5297 9.17241 48.0172 7.60345 52.8921 7.48276C47.286 1.93103 56.1826 -7.7041e-07 57.0357 2.89655C57.2794 3.74138 54.3545 2.17241 53.3795 3.74138C52.2827 5.55172 60.2043 10.2586 52.039 9.89655C55.0857 12.9138 55.2076 14.3621 50.4546 14.8448C51.064 15.8103 53.0139 19.1897 51.7952 19.6724Z" fill="#FF8736"/>
<path d="M53.867 38.5L55.6951 36.931C55.6951 36.931 57.4013 39.4655 58.62 40.431C59.595 36.0862 59.3512 33.5517 64.3479 36.4483C61.5449 28.9655 66.176 31.7414 70.6852 33.7931C70.4415 31.8621 70.6852 32.1035 72.6352 31.5C74.3414 37.8966 69.7103 35.9655 66.0541 33.9138C68.2478 39.7069 65.9323 39.3448 61.3012 37.4138C61.1793 39.8276 60.4481 42.6034 58.9856 42.8448C57.2794 43.3276 53.867 38.5 53.867 38.5Z" fill="#ED4C5C"/>
<path d="M40.2175 20.6379C38.0238 23.5345 34.4895 25.1035 31.9302 27.6379C29.2491 30.2931 27.6647 37.5345 27.6647 37.5345C27.6647 37.5345 28.6397 29.931 31.199 27.0345C33.5145 24.3793 36.9269 22.4483 38.755 19.431C41.9236 13.8793 38.9987 6.63793 34.8551 2.41379C35.7082 1.68966 36.9269 0.724138 37.5363 0C41.558 4.94828 44.9704 14.4828 40.2175 20.6379Z" fill="#C28FEF"/>
<path d="M43.9955 26.7931C40.8268 29.0862 38.5113 32.4655 36.3176 35.6035C34.3676 38.3793 28.1522 41.8793 28.1522 41.8793C28.1522 41.8793 34.002 37.8966 35.8301 35C38.0238 31.3793 40.2175 27.6379 43.6299 24.9828C50.4546 19.7931 60.3262 20.2759 68.0041 23.0517C67.5166 24.1379 66.6635 26.431 66.6635 26.431C66.6635 26.431 50.4546 22.0862 43.9955 26.7931Z" fill="#FF8736"/>
<path d="M57.5232 26.1897C55.4513 28.8448 54.4764 32.1034 52.8921 35.1207C51.4296 37.8966 49.4797 40.5517 46.6766 42C43.508 43.569 36.5613 43.0862 36.5613 43.0862C36.5613 43.0862 43.508 42.9655 46.4329 41.0345C49.3578 39.1034 50.9421 35.7241 52.039 32.5862C54.2326 26.5517 56.9138 20.0345 63.2511 17.3793C63.6167 18.4655 64.4698 20.7586 64.4698 20.7586C64.4698 20.7586 60.9355 21.7241 57.5232 26.1897ZM1.47464 13.6681L4.92115 10.2538L8.36889 13.6669L4.92237 17.0824L1.47464 13.6681Z" fill="#42ADE2"/>
<path d="M6.3044 24.3757L9.74969 20.9626L13.1962 24.3757L9.74969 27.7888L6.3044 24.3757Z" fill="#FF8736"/>
<path d="M15.0608 8.23345L18.5074 4.82034L21.9539 8.23345L18.5074 11.6465L15.0608 8.23345Z" fill="#ED4C5C"/>
<path d="M52.6544 49.1159L56.1009 45.7016L59.5474 49.1159L56.1009 52.529L52.6544 49.1159Z" fill="#C28FEF"/>
<path d="M44.9741 60.8155L48.4206 57.4024L51.8683 60.8167L48.4206 64.2298L44.9741 60.8155Z" fill="#ED4C5C"/>
<path d="M60.0569 63.4912L63.5034 60.0769L66.9499 63.4912L63.5034 66.9043L60.0569 63.4912Z" fill="#FF8736"/>
<path d="M63.468 47.9512L66.9145 44.5381L70.3611 47.9512L66.9145 51.3655L63.468 47.9512ZM57.7133 11.8553L61.1598 8.44104L64.6075 11.8553L61.161 15.2685L57.7133 11.8553Z" fill="#42ADE2"/>
<path d="M20.7717 32.3352L24.2194 28.9221L27.6659 32.3352L24.2194 35.7495L20.7717 32.3352Z" fill="#ED4C5C"/>
</svg>
